<svg width="70" height="70" viewBox="0 0 70 70" fill="none" xmlns="http://www.w3.org/2000/svg">
<path d="M29.6432 4.66458C32.7139 1.99069 37.2861 1.99069 40.3568 4.66458C42.1516 6.22742 44.5393 6.92854 46.8941 6.58412C50.923 5.99484 54.7694 8.46677 55.907 12.3763C56.5719 14.6614 58.2016 16.5421 60.3688 17.5255C64.0766 19.2079 65.976 23.367 64.8194 27.2709C64.1433 29.5527 64.4975 32.016 65.789 34.0149C67.9987 37.4349 67.348 41.9606 64.2643 44.6195C62.4619 46.1735 61.4281 48.4372 61.4339 50.8171C61.4439 54.8888 58.4497 58.3442 54.418 58.9139C52.0616 59.2468 49.9681 60.5923 48.6863 62.5974C46.4933 66.0281 42.1063 67.3163 38.4067 65.6158C36.2443 64.6219 33.7557 64.6219 31.5933 65.6158C27.8937 67.3163 23.5067 66.0281 21.3137 62.5974C20.0319 60.5923 17.9384 59.2468 15.582 58.9139C11.5503 58.3442 8.55615 54.8888 8.56606 50.8171C8.57186 48.4372 7.53806 46.1735 5.7357 44.6195C2.65203 41.9606 2.00133 37.4349 4.211 34.0149C5.50251 32.016 5.85668 29.5527 5.18064 27.2709C4.02399 23.367 5.92336 19.2079 9.63123 17.5255C11.7984 16.5421 13.4281 14.6614 14.093 12.3763C15.2306 8.46677 19.077 5.99484 23.1059 6.58412C25.4607 6.92854 27.8484 6.22742 29.6432 4.66458Z" fill="#FD4D35"/>
<path d="M12.6 36.7147H19.1333V38.2454H12.6V36.7147ZM25.3902 42.4827C23.9964 42.4827 22.9075 42.1031 22.1235 41.344C21.352 40.5849 20.9475 39.5147 20.9102 38.1334H22.7395C22.8391 39.9129 23.7226 40.8027 25.3902 40.8027C26.2737 40.8027 26.9332 40.6036 27.3688 40.2054C27.8168 39.7947 28.0408 39.2534 28.0408 38.5814C28.0408 37.9343 27.823 37.4116 27.3875 37.0134C26.9644 36.6152 26.3546 36.4161 25.5582 36.4161H23.8035V34.8108H25.5582C26.2675 34.8108 26.8088 34.6303 27.1821 34.2694C27.5679 33.8961 27.7608 33.4108 27.7608 32.8135C27.7608 32.2037 27.5617 31.7184 27.1635 31.3575C26.7652 30.9842 26.1741 30.7975 25.3902 30.7975C24.6808 30.7975 24.1208 30.9966 23.7102 31.3948C23.312 31.7806 23.0817 32.3468 23.0195 33.0935H21.1902C21.2275 31.849 21.6071 30.8784 22.3289 30.1815C23.0631 29.4722 24.0835 29.1175 25.3902 29.1175C26.0621 29.1175 26.6595 29.2108 27.1821 29.3975C27.7048 29.5717 28.1403 29.8206 28.4888 30.1442C28.8497 30.4553 29.1234 30.841 29.3101 31.3015C29.4968 31.7495 29.5901 32.241 29.5901 32.7761C29.5901 33.3983 29.4532 33.9521 29.1794 34.4374C28.9057 34.9228 28.5012 35.3085 27.9661 35.5948C28.6008 35.8934 29.0737 36.3041 29.3848 36.8267C29.7083 37.3494 29.8701 37.9467 29.8701 38.6187C29.8701 39.1912 29.7705 39.7138 29.5714 40.1867C29.3848 40.6596 29.0986 41.0702 28.7128 41.4187C28.3395 41.7547 27.8728 42.016 27.3128 42.2027C26.7528 42.3893 26.1119 42.4827 25.3902 42.4827ZM36.5915 42.4827C35.907 42.4827 35.2848 42.3707 34.7248 42.1467C34.1773 41.9227 33.7106 41.568 33.3248 41.0827C32.9391 40.5849 32.6404 39.9503 32.4289 39.1787C32.2173 38.3947 32.1115 37.449 32.1115 36.3414V35.2588C32.1115 34.1637 32.2173 33.2304 32.4289 32.4588C32.6404 31.6748 32.9391 31.0402 33.3248 30.5548C33.7231 30.0571 34.1959 29.6962 34.7435 29.4722C35.3035 29.2357 35.9195 29.1175 36.5915 29.1175C37.2759 29.1175 37.8919 29.2295 38.4394 29.4535C38.9994 29.6775 39.4723 30.0384 39.8581 30.5362C40.2439 31.0215 40.5425 31.6561 40.7541 32.4401C40.9656 33.2117 41.0714 34.1512 41.0714 35.2588V36.3414C41.0714 37.4365 40.9656 38.3761 40.7541 39.1601C40.5425 39.9316 40.2376 40.5663 39.8394 41.064C39.4537 41.5494 38.9808 41.9102 38.4208 42.1467C37.8732 42.3707 37.2635 42.4827 36.5915 42.4827ZM36.5915 40.8027C37.0021 40.8027 37.3692 40.7343 37.6928 40.5974C38.0288 40.448 38.3088 40.2054 38.5328 39.8694C38.7568 39.5209 38.931 39.0605 39.0554 38.4881C39.1799 37.9156 39.2421 37.2001 39.2421 36.3414V35.2588C39.2421 34.4001 39.1799 33.6908 39.0554 33.1308C38.931 32.5584 38.7506 32.0979 38.5141 31.7495C38.2901 31.401 38.0101 31.1584 37.6741 31.0215C37.3506 30.8722 36.9897 30.7975 36.5915 30.7975C36.1808 30.7975 35.8075 30.8722 35.4715 31.0215C35.1479 31.1584 34.8742 31.401 34.6502 31.7495C34.4262 32.0855 34.2519 32.5397 34.1275 33.1121C34.0031 33.6846 33.9408 34.4001 33.9408 35.2588V36.3414C33.9408 37.2001 34.0031 37.9156 34.1275 38.4881C34.2519 39.0481 34.4262 39.5023 34.6502 39.8507C34.8866 40.1991 35.1666 40.448 35.4901 40.5974C35.8261 40.7343 36.1933 40.8027 36.5915 40.8027ZM46.2112 35.9494C45.7384 35.9494 45.3028 35.8748 44.9046 35.7254C44.5188 35.5761 44.1828 35.3645 43.8966 35.0908C43.6228 34.817 43.4113 34.4934 43.2619 34.1201C43.1126 33.7468 43.0379 33.3361 43.0379 32.8881V32.1788C43.0379 31.7308 43.1126 31.3202 43.2619 30.9468C43.4113 30.5735 43.6228 30.2499 43.8966 29.9762C44.1828 29.7024 44.5188 29.4908 44.9046 29.3415C45.3028 29.1922 45.7384 29.1175 46.2112 29.1175C46.6841 29.1175 47.1134 29.1922 47.4992 29.3415C47.885 29.4908 48.2148 29.7024 48.4885 29.9762C48.7748 30.2499 48.9925 30.5735 49.1419 30.9468C49.3036 31.3202 49.3845 31.7308 49.3845 32.1788V32.8881C49.3845 33.3361 49.3036 33.7468 49.1419 34.1201C48.9925 34.4934 48.7748 34.817 48.4885 35.0908C48.2148 35.3645 47.885 35.5761 47.4992 35.7254C47.1134 35.8748 46.6841 35.9494 46.2112 35.9494ZM46.2112 34.4934C46.6966 34.4934 47.0761 34.3566 47.3499 34.0828C47.6361 33.809 47.7792 33.4108 47.7792 32.8881V32.1788C47.7792 31.6561 47.6361 31.2579 47.3499 30.9842C47.0761 30.7104 46.6966 30.5735 46.2112 30.5735C45.7259 30.5735 45.3401 30.7104 45.0539 30.9842C44.7801 31.2579 44.6433 31.6561 44.6433 32.1788V32.8881C44.6433 33.4108 44.7801 33.809 45.0539 34.0828C45.3401 34.3566 45.7259 34.4934 46.2112 34.4934ZM55.1711 42.4827C54.6982 42.4827 54.2627 42.408 53.8645 42.2587C53.4787 42.1093 53.1427 41.8978 52.8565 41.624C52.5827 41.3502 52.3712 41.0267 52.2218 40.6534C52.0725 40.28 51.9978 39.8694 51.9978 39.4214V38.7121C51.9978 38.2641 52.0725 37.8534 52.2218 37.4801C52.3712 37.1067 52.5827 36.7832 52.8565 36.5094C53.1427 36.2356 53.4787 36.0241 53.8645 35.8748C54.2627 35.7254 54.6982 35.6508 55.1711 35.6508C55.644 35.6508 56.0733 35.7254 56.4591 35.8748C56.8449 36.0241 57.1747 36.2356 57.4484 36.5094C57.7346 36.7832 57.9524 37.1067 58.1018 37.4801C58.2635 37.8534 58.3444 38.2641 58.3444 38.7121V39.4214C58.3444 39.8694 58.2635 40.28 58.1018 40.6534C57.9524 41.0267 57.7346 41.3502 57.4484 41.624C57.1747 41.8978 56.8449 42.1093 56.4591 42.2587C56.0733 42.408 55.644 42.4827 55.1711 42.4827ZM55.1711 41.0267C55.6564 41.0267 56.036 40.8898 56.3098 40.616C56.596 40.3423 56.7391 39.944 56.7391 39.4214V38.7121C56.7391 38.1894 56.596 37.7912 56.3098 37.5174C56.036 37.2436 55.6564 37.1067 55.1711 37.1067C54.6858 37.1067 54.3 37.2436 54.0138 37.5174C53.74 37.7912 53.6031 38.1894 53.6031 38.7121V39.4214C53.6031 39.944 53.74 40.3423 54.0138 40.616C54.3 40.8898 54.6858 41.0267 55.1711 41.0267ZM53.5658 29.2668H55.3578L47.8165 42.3333H46.0246L53.5658 29.2668Z" fill="white"/>
</svg>
